<svg xmlns="http://www.w3.org/2000/svg" xmlns:xlink="http://www.w3.org/1999/xlink" width="" zoomAndPan="magnify" viewBox="0 0 112.5 37.5" height="" preserveAspectRatio="xMidYMid meet" version="1.0"><defs><g/></defs><g fill="#ffb71b" fill-opacity="1"><g transform="translate(1.353824, 27.636507)"><g><path d="M 16.484375 -8.984375 C 16.484375 -6.109375 15.691406 -3.890625 14.109375 -2.328125 C 12.523438 -0.773438 10.300781 0 7.4375 0 L 1.859375 0 L 1.859375 -17.234375 L 7.828125 -17.234375 C 10.585938 -17.234375 12.71875 -16.523438 14.21875 -15.109375 C 15.726562 -13.691406 16.484375 -11.648438 16.484375 -8.984375 Z M 11.65625 -8.8125 C 11.65625 -10.394531 11.34375 -11.566406 10.71875 -12.328125 C 10.09375 -13.085938 9.144531 -13.46875 7.875 -13.46875 L 6.515625 -13.46875 L 6.515625 -3.8125 L 7.5625 -3.8125 C 8.96875 -3.8125 10 -4.222656 10.65625 -5.046875 C 11.320312 -5.867188 11.65625 -7.125 11.65625 -8.8125 Z M 11.65625 -8.8125 "/></g></g></g><g fill="#ffb71b" fill-opacity="1"><g transform="translate(19.064651, 27.636507)"><g><path d="M 11.109375 0 L 10.53125 -1.65625 L 10.25 -1.65625 C 9.863281 -1.050781 9.328125 -0.582031 8.640625 -0.25 C 7.953125 0.0703125 7.144531 0.234375 6.21875 0.234375 C 4.75 0.234375 3.601562 -0.191406 2.78125 -1.046875 C 1.96875 -1.898438 1.5625 -3.101562 1.5625 -4.65625 L 1.5625 -13.359375 L 6.171875 -13.359375 L 6.171875 -6.0625 C 6.171875 -5.1875 6.296875 -4.523438 6.546875 -4.078125 C 6.796875 -3.628906 7.203125 -3.40625 7.765625 -3.40625 C 8.554688 -3.40625 9.117188 -3.71875 9.453125 -4.34375 C 9.796875 -4.96875 9.96875 -6.023438 9.96875 -7.515625 L 9.96875 -13.359375 L 14.578125 -13.359375 L 14.578125 0 Z M 11.109375 0 "/></g></g></g><g fill="#ffb71b" fill-opacity="1"><g transform="translate(35.231819, 27.636507)"><g><path d="M 14.34375 -6.703125 C 14.34375 -4.523438 13.753906 -2.820312 12.578125 -1.59375 C 11.410156 -0.375 9.769531 0.234375 7.65625 0.234375 C 5.625 0.234375 4.007812 -0.390625 2.8125 -1.640625 C 1.613281 -2.890625 1.015625 -4.578125 1.015625 -6.703125 C 1.015625 -8.878906 1.597656 -10.570312 2.765625 -11.78125 C 3.941406 -12.988281 5.59375 -13.59375 7.71875 -13.59375 C 9.03125 -13.59375 10.1875 -13.3125 11.1875 -12.75 C 12.195312 -12.195312 12.972656 -11.398438 13.515625 -10.359375 C 14.066406 -9.316406 14.34375 -8.097656 14.34375 -6.703125 Z M 5.6875 -6.703125 C 5.6875 -5.554688 5.835938 -4.679688 6.140625 -4.078125 C 6.453125 -3.484375 6.972656 -3.1875 7.703125 -3.1875 C 8.410156 -3.1875 8.910156 -3.484375 9.203125 -4.078125 C 9.503906 -4.679688 9.65625 -5.554688 9.65625 -6.703125 C 9.65625 -7.847656 9.503906 -8.707031 9.203125 -9.28125 C 8.910156 -9.863281 8.398438 -10.15625 7.671875 -10.15625 C 6.960938 -10.15625 6.453125 -9.863281 6.140625 -9.28125 C 5.835938 -8.707031 5.6875 -7.847656 5.6875 -6.703125 Z M 5.6875 -6.703125 "/></g></g></g><g fill="#ffb71b" fill-opacity="1"><g transform="translate(50.609482, 27.636507)"><g><path d="M 7.671875 0.234375 C 5.484375 0.234375 3.828125 -0.351562 2.703125 -1.53125 C 1.578125 -2.707031 1.015625 -4.398438 1.015625 -6.609375 C 1.015625 -8.828125 1.625 -10.546875 2.84375 -11.765625 C 4.0625 -12.984375 5.789062 -13.59375 8.03125 -13.59375 C 9.582031 -13.59375 11.039062 -13.253906 12.40625 -12.578125 L 11.0625 -9.171875 C 10.5 -9.410156 9.984375 -9.601562 9.515625 -9.75 C 9.046875 -9.894531 8.550781 -9.96875 8.03125 -9.96875 C 7.289062 -9.96875 6.710938 -9.675781 6.296875 -9.09375 C 5.890625 -8.519531 5.6875 -7.703125 5.6875 -6.640625 C 5.6875 -4.503906 6.476562 -3.4375 8.0625 -3.4375 C 9.414062 -3.4375 10.710938 -3.828125 11.953125 -4.609375 L 11.953125 -0.9375 C 10.765625 -0.15625 9.335938 0.234375 7.671875 0.234375 Z M 7.671875 0.234375 "/></g></g></g><g fill="#012c56" fill-opacity="1"><g transform="translate(63.62202, 27.636507)"><g><path d="M 9.46875 0 L 4.8125 0 L 4.8125 -13.421875 L 0.59375 -13.421875 L 0.59375 -17.234375 L 13.65625 -17.234375 L 13.65625 -13.421875 L 9.46875 -13.421875 Z M 9.46875 0 "/></g></g></g><g fill="#012c56" fill-opacity="1"><g transform="translate(77.880237, 27.636507)"><g><path d="M 12.4375 0 L 11.59375 -3.234375 L 5.984375 -3.234375 L 5.109375 0 L 0 0 L 5.625 -17.296875 L 11.828125 -17.296875 L 17.53125 0 Z M 10.625 -7.046875 L 9.875 -9.875 C 9.707031 -10.507812 9.5 -11.320312 9.25 -12.3125 C 9 -13.3125 8.835938 -14.03125 8.765625 -14.46875 C 8.691406 -14.0625 8.550781 -13.398438 8.34375 -12.484375 C 8.132812 -11.566406 7.671875 -9.753906 6.953125 -7.046875 Z M 10.625 -7.046875 "/></g></g></g><g fill="#012c56" fill-opacity="1"><g transform="translate(95.402525, 27.636507)"><g><path d="M 14.375 -11.75 C 14.375 -9.820312 13.804688 -8.332031 12.671875 -7.28125 C 11.535156 -6.238281 9.921875 -5.71875 7.828125 -5.71875 L 6.515625 -5.71875 L 6.515625 0 L 1.859375 0 L 1.859375 -17.234375 L 7.828125 -17.234375 C 10.003906 -17.234375 11.640625 -16.753906 12.734375 -15.796875 C 13.828125 -14.847656 14.375 -13.5 14.375 -11.75 Z M 6.515625 -9.515625 L 7.359375 -9.515625 C 8.066406 -9.515625 8.625 -9.707031 9.03125 -10.09375 C 9.445312 -10.488281 9.65625 -11.035156 9.65625 -11.734375 C 9.65625 -12.890625 9.007812 -13.46875 7.71875 -13.46875 L 6.515625 -13.46875 Z M 6.515625 -9.515625 "/></g></g></g></svg>